<?xml version="1.0" encoding="utf-8"?>
<!-- Generator: Adobe Illustrator 19.0.0, SVG Export Plug-In . SVG Version: 6.00 Build 0)  -->
<svg version="1.1" id="Layer_1" xmlns="http://www.w3.org/2000/svg" xmlns:xlink="http://www.w3.org/1999/xlink" x="0px" y="0px"
	 viewBox="-265 388.9 64 64" enable-background="new -265 388.9 64 64" xml:space="preserve">
<rect x="-262.3" y="391.2" fill="#FFFFFF" width="58.3" height="58.5"/>
<g>
	<path d="M-206,393.9l0,54l-54,0l0-54H-206 M-205.9,388.9h-54.1c-2.7,0-4.9,2.2-4.9,4.9v54.1c0,2.7,2.2,4.9,4.9,4.9h54.1
		c2.7,0,4.9-2.2,4.9-4.9v-54.1C-201,391.1-203.2,388.9-205.9,388.9L-205.9,388.9z"/>
</g>
<line fill="none" stroke="#000000" stroke-width="5" stroke-linejoin="round" stroke-miterlimit="10" x1="-265" y1="405.8" x2="-201" y2="405.8"/>
<circle cx="-212.5" cy="398.6" r="2.3"/>
<circle cx="-220" cy="398.6" r="2.3"/>
<circle cx="-227.5" cy="398.6" r="2.3"/>
<g>
	
		<polyline fill="none" stroke="#000000" stroke-width="4.5" stroke-linecap="round" stroke-linejoin="round" stroke-miterlimit="10" points="
		-244.5,418.5 -255.8,427.7 -244.5,436.5 	"/>
	
		<polyline fill="none" stroke="#000000" stroke-width="4.5" stroke-linecap="round" stroke-linejoin="round" stroke-miterlimit="10" points="
		-221.5,418.5 -210.2,427.7 -221.5,436.5 	"/>
	
		<line fill="none" stroke="#000000" stroke-width="4.5" stroke-linecap="round" stroke-linejoin="round" stroke-miterlimit="10" x1="-228.7" y1="418.5" x2="-237.5" y2="436.5"/>
</g>
</svg>
