<?xml version="1.0" encoding="utf-8"?>
<!-- Generator: Adobe Illustrator 19.0.0, SVG Export Plug-In . SVG Version: 6.00 Build 0)  -->
<svg version="1.1" id="Layer_1" xmlns="http://www.w3.org/2000/svg" xmlns:xlink="http://www.w3.org/1999/xlink" x="0px" y="0px"
	 viewBox="0 0 64 64" enable-background="new 0 0 64 64" xml:space="preserve">
<g id="XMLID_5_">
	<path id="XMLID_14_" d="M7.8,32C7.8,18.7,18.6,7.8,32,7.8c4.5,0,8.8,1.2,12.6,3.5l-4,5l20.7,3.2L53.7,0l-4.2,5.3
		C44.3,1.9,38.2,0,32,0C14.4,0,0,14.4,0,32c0,1.9,0.2,3.8,0.5,5.7l7.7-1.4C7.9,34.9,7.8,33.5,7.8,32z"/>
	<path id="XMLID_17_" d="M63.7,27.5L56,28.6c0.2,1.1,0.2,2.3,0.2,3.5c0,13.4-10.9,24.2-24.2,24.2c-4.6,0-9.1-1.3-12.9-3.7l4.1-4.9
		L2.5,44.1l7.3,19.6l4.3-5.2C19.4,62.1,25.6,64,32,64c17.6,0,32-14.4,32-32C64,30.5,63.9,29,63.7,27.5z"/>
</g>
</svg>
