<?xml version="1.0" encoding="utf-8"?>
<!-- Generator: Adobe Illustrator 19.0.0, SVG Export Plug-In . SVG Version: 6.00 Build 0)  -->
<svg version="1.1" id="Layer_1" xmlns="http://www.w3.org/2000/svg" xmlns:xlink="http://www.w3.org/1999/xlink" x="0px" y="0px"
	 viewBox="-265 388.9 64 64" enable-background="new -265 388.9 64 64" xml:space="preserve">
<path d="M-204.4,423.6c2.1-1.1,3.8-2.7,3.3-5.2l-0.9-5.1c-0.4-2.4-2.6-3.6-4.9-3.7l-1.8-0.1c-0.5-1.2-1.2-2.3-1.9-3.4l0.9-1.7
	c0.9-2.2,1.2-4.5-0.7-6.1l-4-3.4c-1.9-1.6-4.2-1-6.1,0.3l-1.4,1.1c-1.1-0.5-2.3-1-3.6-1.4l-0.4-1.9c-0.6-2.1-1.9-4.1-4.3-4.1h-5.2
	c-2.4,0-3.9,2-4.4,4.2l-0.4,1.8c-1.2,0.3-2.4,0.8-3.6,1.3l-1.5-1.2c-2-1.3-4.2-1.9-6.1-0.3l-4,3.4c-1.9,1.6-1.8,4.1-0.7,6.1l0.8,1.6
	c-0.7,1-1.4,2.1-1.9,3.3l-1.9,0.1c-2.3,0.3-4.5,1.3-4.9,3.7l-0.9,5.2c-0.4,2.4,1.2,4.2,3.3,5.2l1.6,0.5c0.1,1.3,0.3,2.6,0.6,3.8
	l-1.4,1.3c-1.6,1.7-2.6,3.9-1.4,6l2.6,4.6c1.2,2.1,3.6,2.4,5.8,1.8l1.7-0.5c0.9,0.9,1.9,1.7,2.9,2.5l-0.3,1.9
	c-0.1,2.4,0.4,4.7,2.7,5.5l4.9,1.8c2.3,0.8,4.3-0.5,5.6-2.4l1-1.5c0.7,0.1,1.4,0.1,2.2,0.1c0.6,0,1.1,0,1.7-0.1l1,1.6
	c1.4,1.9,3.3,3.3,5.6,2.4l4.9-1.8c2.3-0.8,3-3.2,2.7-5.5l-0.2-1.8c1-0.7,2-1.6,2.9-2.5l1.8,0.6c2.3,0.5,4.6,0.4,5.8-1.8l2.6-4.6
	c1.2-2.1,0.3-4.4-1.4-6l-1.3-1.2c0.3-1.2,0.5-2.5,0.7-3.8L-204.4,423.6z M-215.8,421.3c0,9.6-7.7,17.4-17.2,17.4
	s-17.2-7.8-17.2-17.4s7.7-17.4,17.2-17.4S-215.8,411.6-215.8,421.3z"/>
</svg>
